<svg id="Layer_1" xmlns="http://www.w3.org/2000/svg" viewBox="0 0 219.9 45.4"><style>.st0{fill:#cfa31f}.st1{fill:#59237f}.st2{fill:#fff}</style><switch><g><path class="st0" d="M201.2 37.6h1.4v-2.5l2.4-3.7h-1.5l-1.5 2.5-1.5-2.5h-1.6l2.4 3.7v2.5m-16.7 0h1.4v-4.9h1.9v-1.3h-5.1v1.3h1.9v4.9zm-14.4 0h1.4v-6.2h-1.4v6.2zm-13.4.1c1.3 0 2.3-.7 2.3-1.9 0-1.1-.7-1.5-2-1.8-1.1-.3-1.3-.4-1.3-.8 0-.3.3-.5.8-.5s1.1.2 1.6.6l.7-1c-.6-.5-1.4-.8-2.3-.8-1.3 0-2.2.7-2.2 1.9s.8 1.6 2 1.9c1 .3 1.2.4 1.2.8s-.3.6-.9.6c-.7 0-1.3-.3-1.8-.7l-.8 1c.9.3 1.8.7 2.7.7m-17.6-3.3v-1.8h1.3c.7 0 1.1.3 1.1.9 0 .5-.4.9-1 .9h-1.4zm-1.3 3.2h1.4v-2h1.1l1.3 2h1.6l-1.5-2.2c.8-.3 1.3-.9 1.3-1.9 0-.6-.2-1.1-.5-1.4-.4-.4-1-.6-1.8-.6H138v6.1zm-15.8 0h4.7v-1.2h-3.3v-1.3h2.9v-1.2h-2.9v-1.3h3.3v-1.2h-4.7v6.2zm-14.7 0h1.2l2.5-6.2h-1.5l-1.6 4.3-1.6-4.3h-1.5l2.5 6.2zm-14.9 0h1.4v-6.2h-1.4v6.2zm-16.5 0h1.3v-3.9l3 3.9h1.2v-6.2h-1.3v3.8l-2.9-3.8H76v6.2zm-13.8.1c1.7 0 2.7-.9 2.7-2.8v-3.5h-1.4v3.5c0 1-.5 1.5-1.3 1.5s-1.3-.5-1.3-1.5v-3.5h-1.4v3.5c.1 1.8 1.1 2.8 2.7 2.8"/><path class="st1" d="M219.4 13.7c-.2-1.1-.3-1.9-.4-2.5-.2-.1-.5-.1-.8-.2-.5-.2-1.2-.3-1.7-.3-2.5 0-4 1.6-4 3.6 0 1.8 1.6 2.8 2.8 3.5l.6.3c1.5.7 2 1.5 2 2.5 0 1.2-.8 2.1-2 2.1-1.9 0-3-2.1-3.3-3.1l-.6.2c.2 1.1.4 2.4.6 2.9.2.1.6.2 1.1.4s1.2.3 1.9.3c2.5 0 4.3-1.6 4.3-3.8 0-2-1.4-3-2.8-3.6l-.5-.2c-1.4-.7-2.2-1.4-2.2-2.4 0-1.1.7-2 1.9-2 1.6 0 2.2 1.3 2.5 2.4l.6-.1M197 10.9v.5c1.5.1 2 .6 2 2.7v3.7c0 2.1-.1 3.2-.2 3.8-.1.7-.6.9-1.5 1v.5h4.6v-.5c-1.2-.1-1.7-.3-1.8-1-.1-.6-.2-1.6-.2-3.8v-4.1l7.8 9.5h.9v-7.1c0-2.1.1-3.2.2-3.8.1-.7.6-.9 1.5-1v-.5h-4.6v.5c1.2.1 1.7.3 1.8 1 .1.6.2 1.6.2 3.8v3.6l-7.5-8.8H197zm-7.8.5c2.5 0 4.1 2.2 4.1 6.1 0 3.5-1.5 5.2-3.5 5.2-2.7 0-4.2-2.6-4.2-6 .1-3.4 1.7-5.3 3.6-5.3m.6-.7c-4.4 0-6.6 3.5-6.6 6.6 0 3.4 2.4 6.2 6.2 6.2 3.6 0 6.4-2.6 6.4-6.6 0-3.7-2.7-6.2-6-6.2m-23.3.2v.5c1.6.1 1.7.3 1.6 2.8l-.2 3.9c-.1 1.8-.2 2.9-.3 3.5-.1.7-.5.9-1.4 1v.5h4.5v-.5c-1.2-.1-1.6-.3-1.7-1-.1-.6-.1-1.6-.1-3.3l.1-4.9h.1l4.1 9.4h.6l4.3-9.8h.1l.1 7.2c0 2.1 0 2.1-1.5 2.3v.5h5.2v-.5c-1.5-.2-1.6-.2-1.6-2.3l-.2-6.6c0-2.1 0-2.1 1.6-2.3v-.5H178l-3.9 9-4.2-9h-3.4zm-17.5 0v.5c1.6.1 1.8.3 1.6 2.8l-.2 3.9c-.1 1.8-.2 2.9-.3 3.5-.1.7-.5.9-1.4 1v.5h4.5v-.5c-1.2-.1-1.6-.3-1.7-1-.1-.6-.1-1.6-.1-3.3l.1-4.9h.1l4.1 9.4h.6l4.3-9.8h.1l.1 7.2c0 2.1 0 2.1-1.5 2.3v.5h5.2v-.5c-1.5-.2-1.6-.2-1.6-2.3l-.2-6.6c0-2.1 0-2.1 1.6-2.3v-.5h-3.6l-3.9 9-4.2-9H149zm-8 0v.5c1.5.1 1.6.3 1.6 2.3v6.6c0 2-.2 2.2-1.6 2.3v.5h5.3v-.5c-1.4-.1-1.6-.3-1.6-2.3v-6.6c0-2 .2-2.2 1.6-2.3v-.5H141zm-2.7 2.8c-.2-1.1-.3-1.9-.4-2.5-.2-.1-.5-.1-.8-.2-.5-.2-1.2-.3-1.7-.3-2.5 0-4 1.6-4 3.6 0 1.8 1.6 2.8 2.8 3.5l.6.3c1.5.7 2 1.5 2 2.5 0 1.2-.8 2.1-2 2.1-1.9 0-3-2.1-3.3-3.1l-.6.2c.2 1.1.4 2.4.6 2.9.2.1.6.2 1.1.4s1.2.3 1.9.3c2.5 0 4.3-1.6 4.3-3.8 0-2-1.4-3-2.8-3.6l-.5-.2c-1.4-.7-2.2-1.4-2.2-2.4 0-1.1.7-2 1.9-2 1.6 0 2.2 1.3 2.5 2.4l.6-.1zm-14.4 2.7l-.3 1.3h4.7l.3-1.3h-4.7zM109 10.9v.5c1.5.1 2 .6 2 2.7v3.7c0 2.1-.1 3.2-.2 3.8-.1.7-.6.9-1.5 1v.5h4.6v-.5c-1.2-.1-1.7-.3-1.8-1-.1-.6-.2-1.6-.2-3.8v-4.1l7.8 9.5h.9v-7.1c0-2.1.1-3.2.2-3.8.1-.7.6-.9 1.5-1v-.5h-4.6v.5c1.2.1 1.7.3 1.8 1 .1.6.2 1.6.2 3.8v3.6l-7.5-8.8H109zm-7.9 0v.5c1.5.1 1.6.3 1.6 2.3v6.6c0 2-.2 2.2-1.6 2.3v.5h5.3v-.5c-1.4-.1-1.6-.3-1.6-2.3v-6.6c0-2 .1-2.2 1.6-2.3v-.5h-5.3zM90 12.7c0-.5 0-.8.1-.9s.6-.2 1.2-.2c3 0 5 1.4 5 5.4 0 3.1-1.6 5.3-4.7 5.3-1.4 0-1.6-.4-1.6-2.1v-7.5zm-3.6-1.8v.5c1.4.1 1.5.3 1.5 2.3v6.6c0 2-.1 2.2-1.7 2.3v.5h4.6c4.4 0 8-2 8-6.7 0-1.7-.7-3-1.6-3.9-1.2-1.2-3.2-1.7-5.3-1.7h-5.5zm-13.3 0v.5c1.4.1 1.6.3 1.6 2.3v6.6c0 2-.2 2.2-1.7 2.3v.5h5.3v-.5c-1.4-.1-1.6-.3-1.6-2.3v-2.5h.6c.6 0 .8.2 1.1.7.5 1 1.2 2.2 1.8 3 .7 1.1 1.4 1.6 3.4 1.7h.8l.1-.5c-.5-.1-.8-.4-1.3-.9-.4-.4-.8-1.1-1.6-2.1-.6-.8-1.3-2.2-1.6-2.7 1.5-.6 2.5-1.7 2.5-3.3 0-1.1-.5-1.9-1.2-2.4-.8-.5-1.7-.6-3.1-.6h-5.1zm3.7 1.4c0-.6 0-.7.9-.7 1.2 0 2.6.7 2.6 2.6 0 .9-.3 1.8-1 2.4-.5.4-1 .5-1.8.5h-.7v-4.8zm-12.3 1.5L66 18h-3l1.5-4.2zm.3-2.9L61 20.7c-.7 1.7-.9 1.8-2 1.9v.5h4.2v-.5l-.5-.1c-.8-.1-1-.3-.6-1.3.3-.8.6-1.8.8-2.4h3.5c.4 1 .8 2.1 1 2.7.2.7.2.9-.5 1l-.5.1v.5h4.9v-.5c-1.1-.1-1.4-.2-2-1.9-.7-1.9-1.5-4.2-2.4-6.5l-1.3-3.5-.8.2zm-20.2 0v.5c1.6.1 1.7.3 1.7 2.3v6.6c0 2-.2 2.2-1.7 2.3v.5H50v-.5c-1.5-.1-1.6-.3-1.6-2.3v-3.2h5.7v3.2c0 2-.1 2.2-1.7 2.3v.5h5.5v-.5c-1.5-.1-1.6-.3-1.6-2.3v-6.6c0-2 .2-2.2 1.7-2.3v-.5h-5.3v.5c1.4.1 1.6.3 1.6 2.3v2.5h-5.7v-2.5c0-2 .2-2.2 1.5-2.3v-.5h-5.5z"/><path class="st2" d="M35.1 22.6V6.5h-.2c-4-.8-8.1-1.4-12.2-1.6L17.6 0l-.3.3-4.8 4.5c-4.1.3-8.2.8-12.2 1.6l-.2.1v16.1c0 6.9 4.2 12.6 8.5 16.5l.1.1c-1.2.6-2.6 1.4-3.6 2.2l-.2.2 2.7.4-.3 2.5.2-.1S9.7 43 12.1 42c2.9 2.1 5.3 3.3 5.3 3.3l.1.1.1-.1c.1 0 2.4-1.2 5.3-3.3 2.4 1 4.6 2.5 4.6 2.5l.2.2-.3-2.7 2.9-.4-.2-.2c-1.1-.8-2.3-1.6-3.5-2.2l.1-.3c4.2-3.9 8.4-9.5 8.4-16.3"/><path class="st0" d="M17.6 39.6c-1.1 0-2.1.1-3 .3 1.2.8 2.2 1.5 3 1.9.8-.5 1.8-1.1 3-2-.9-.1-1.9-.2-3-.2M17.6 21.2c-3.6 0-7.1.2-10.5.7-1.4.2-2.7.4-4 .6v.1c0 4.4 2.1 8.8 6.3 13 .3.3.6.5.8.8 1.7-.6 4.3-1.3 7.3-1.3 3.1 0 5.6.7 7.3 1.3.3-.3.6-.5.8-.8 4.2-4.2 6.3-8.6 6.3-13v-.1c-1.5-.3-3-.5-4.6-.7-3-.4-6.3-.6-9.7-.6"/><path class="st1" d="M17.6 35.1c2.1 0 4 .3 5.5.7-1.7-1.6-3.5-3-5.5-4.2-2 1.3-3.8 2.7-5.5 4.2 1.5-.3 3.4-.7 5.5-.7M17.6 39.6c-.7 0-1.3 0-1.9.1.7.5 1.3.9 1.9 1.2.5-.3 1.2-.7 1.9-1.2-.6 0-1.3-.1-1.9-.1M23.4 28.5c1.8.7 3.5 1.5 5.2 2.4 1-1.5 1.7-3.1 2.2-4.8-2.6.5-5 1.4-7.4 2.4M5.6 25.2c4.2 0 8.2.5 12 1.5 3.8-.9 7.7-1.5 11.8-1.5h1.5c.1-.6.2-1.3.3-1.9-4.4-.7-9-1.1-13.6-1.1-4.7 0-9.2.4-13.7 1.1 0 .7.1 1.3.3 1.9h1.4M4.4 26.1c.5 1.7 1.2 3.3 2.2 4.8 1.6-.9 3.4-1.7 5.1-2.4-2.3-1-4.8-1.8-7.3-2.4"/><path class="st1" d="M8.3 37.6l1.5 3.5c.3-.2 1.3-.6 2.6-1 .1 0 .2 0 .2-.1 1.7-.5 3.4-.8 5-.8s3.3.3 5 .8c.1 0 .1 0 .2.1 1.3.4 2.2.8 2.6 1l1.5-3.5c-.8-.4-4.4-2.1-9.3-2.1-5 0-8.5 1.7-9.3 2.1"/><path class="st1" d="M8.7 39.5c-1.2.6-2.2 1.2-3.1 1.9l2.4.4-.3 2.1c.8-.5 2.9-1.7 5.1-2.5h.1l-.4-.9c-1.6.5-2.7 1-2.7 1.1l-.1.1-1-2.2M22.4 41.4c2.1.8 4.1 2 5 2.6l-.4-2.3 2.5-.4c-.9-.7-2-1.3-3-1.9h-.1l-.9 2.1-.1-.1s-1.1-.6-2.7-1.1l-.3 1.1"/><path class="st2" d="M13.8 38.7h-.4c-.1 0-.1-.1-.1-.2l-.3-1.3c0-.1 0-.2-.1-.3v-.3c-.1.1-.2.2-.4.2-.2.1-.3.2-.4.2h.4s.1.1.1.2l.3 1.3v.2s-.2.1-.3.1v.1c.1 0 .2 0 .4-.1.2 0 .3-.1.4-.1s.2 0 .4-.1c.2 0 .3-.1.4-.1-.3.3-.3.3-.4.2.1 0 0 0 0 0m2.9-1.2c-.1-.1-.2-.2-.4-.3.1-.1.2-.1.3-.2s.1-.2.1-.3c0-.2-.1-.3-.2-.4-.2-.1-.3-.1-.5-.1s-.4.1-.6.2c-.1.1-.2.3-.2.5 0 .1 0 .3.1.4s.2.2.3.2c-.2.1-.3.2-.4.3s-.1.2-.1.4.1.3.2.4.3.1.6.1c.2 0 .4-.1.6-.2s.2-.3.2-.5c.2-.3.1-.4 0-.5m-.4-.6c0 .1-.1.1-.1.2-.1-.1-.2-.2-.3-.2-.1-.1-.1-.2-.1-.3s0-.2.1-.2c0-.1.1-.1.2-.1s.2 0 .2.1c.1.1.1.2.1.3 0 0-.1.1-.1.2m0 1.4c-.1.1-.1.1-.2.1s-.2 0-.3-.1-.1-.2-.1-.3v-.3c0-.1.1-.2.2-.2.1.1.2.1.3.2s.1.2.1.3v.3m3.7-1.9c-.1-.2-.3-.3-.6-.3s-.5 0-.7.2c-.2.1-.3.3-.3.5s0 .4.1.5.2.2.4.2h.2c.1 0 .1 0 .2-.1h-.2c-.1 0-.1-.1-.1-.1v-.4c0-.2.1-.3.1-.4s.1-.1.2-.1.2.1.2.2v.6c-.1.4-.2.8-.3 1-.2.2-.4.4-.9.6.2-.1.4-.1.6-.2s.4-.2.5-.3c.2-.1.3-.3.4-.4.1-.2.2-.3.2-.5.2-.5.1-.8 0-1m2.9 2.7c-.2-.1-.3-.1-.4-.2 0 0-.1-.1 0-.2l.3-1.4c0-.1 0-.2.1-.3 0-.1.1-.2.1-.3h-1 .2c.1 0 .1.1.2.1v.2l-.3 1.3c0 .1-.1.2-.1.2h-.4v.1c.1 0 .2 0 .4.1.2 0 .3.1.4.1s.2.1.4.1.3.1.4.1c-.3.2-.3.2-.3.1"/><path class="st1" d="M32 20.1H31.7l-.1-.1h-.1l-.4-.1h-.2c-.1 0-.2.1-.4.2s0 .2-.1.4-.2-.2-.2-.2l-.2-.2c-.2-.2-.4 0-.4 0-.1 0 0-.2 0-.2v-.5l-.1-.2c-.1 0-.1-.1-.2-.1s-.2-.1-.2-.1c-.1 0-.5.1-.5.1-.1 0-.2.4-.2.4h-.2c-.1-.1-.1-.2-.1-.3h-.2v-2.6l-.5-1.3h-1.5v-2.1L24 11.8V6.1l-1-.3L17.6.7l-5.4 5.1-.9.3v5.6l-1.9 1.4v2.1l-1.7.1-.7 1.5V20l-.1-.1c-.1 0-.2-.1-.2-.1h-.1l-.1.2-.1.1v.2l-.1.1-.1.1-.1-.1h-.2l-.1.1-.1-.1v-.1c0-.1-.1-.4-.1-.4l-.1-.1H5.2s-.3 0-.4.1-.2.6-.2.6-.1 0-.1.1-.1.1-.1.1 0 .1-.1.1l-.3-.3-.1-.1h-.2s0 .1-.1.1l-.1.1v.1h-.1l-.1.1h-.1v1.8c1.3-.2 2.7-.4 4-.6 3.4-.4 6.9-.7 10.5-.7 3.4 0 6.7.2 9.9.6 1.6.2 3.1.4 4.6.7l-.2-2.5M23 6.7v.4l-5.4-1.7v-.6L23 6.7zm-1.5 8.8v-2.4l1.2.2v2.3l-1.2-.1zm1.2.5v2.6l-1.2-.1v-2.6l1.2.1zm-1.2-3.2v-2.4l1.2.3V13l-1.2-.2zm0-2.7V7.7l1.2.3v2.4l-1.2-.3zm-1.8 5.2v-2.5l1.5.3v2.4l-1.5-.2zm1.5.5v2.6l-1.5-.2v-2.7l1.5.3zm-1.5-3.3V10l1.5.4v2.4l-1.5-.3zm0-2.8V7.1l1.5.4V10l-1.5-.3zm-.4.3v2.5l-1.3-.3v.3l1.4.3v2.5l-1.4-.2v.3l1.4.2v2.7l-1.7-.2V6.6l1.6.4v2.6L18 9.3v.3l1.3.4zm2.6-4.3l-4.3-1.6V1.7l4.3 4zm1.3 13.9l-5.8-.4v-.5l5.8.5v.4zm.7-4.4v-2.7l1.3.9v1.8h-1.3zm3.3 5.4c0 .1-.2.2-.2 0 0-.1-.1-2.5-.1-3.8l-.2-.7h-1.2v-.3H27l.3.8c-.1.1-.1 3.9-.1 4"/><path class="st0" d="M3.1 20.2l.2-.1.2-.2H4c.1 0 .2 0 .3.1.1-.4.2-.4.3-.5.1 0 .2-.1.7-.1H5.6l.2.1.1.2.1.1v-.1l.1-.1.1-.1.2-.1h.1v-.7l-2.7-.5v-.1s0-.1.1-.1l2.7-.1v-1.2l-2.8-1.1v-.1h.1l2.9.5.5-1-3.6-2v-.1h.1L9 14.7v-.8l-5-4v-.1h.1l5.2 3 .7-.5-2.8-3.2V9h.1l3.3 2.6.2-.2v-1.2l-1-1.6v-.1h.1l.9.9V8c-2.6.2-5.2.5-7.7 1v11.2M24.4 8v1.4l.9-.9h.1v.1l-1 1.8v1.1l.2.2L27.9 9h.1v.1l-2.6 3.1.7.5 5.2-3h.1v.1l-5.1 4.1v.7l5.2-1.8h.1v.1l-3.9 2.2.3.9 3.5-.5h.1v.1l-3.4 1.3v1l3.3.1s.1 0 .1.1v.1l-2.1.4h.2c.2.1.3.3.3.4.1.1.1.3.1.5.1 0 .1.1.2.1.3-.2.5-.3.7-.3.1 0 .3 0 .3.1l.4.1h.1l.1.1h.2V9c-2.6-.5-5.2-.8-7.7-1"/><path class="st1" d="M1.1 7.4v15.2c0 6 3.4 11 7.1 14.7.3-.1.7-.4 1.3-.6-.1-.2-.3-.4-.5-.7-4.3-4.3-6.5-8.9-6.5-13.5v-14h.3c2.6-.5 5.3-.8 8-1.1V6c-3 .2-6 .7-9 1.2l-.7.2m32.3-.2c-3-.6-6-1-9-1.2v1.3c2.7.2 5.4.6 8 1.1h.3v14.1c0 4.6-2.2 9.1-6.5 13.5l-.6.6c.6.2 1.1.5 1.3.6 3.8-3.7 7.1-8.7 7.1-14.7V7.4l-.6-.2zM22.4 40.4c-.3-.1-.7-.2-1-.3-1.5 1.1-2.8 1.9-3.7 2.4l-.2.1-.2-.1c-.9-.5-2.2-1.3-3.7-2.4-.4.1-.7.2-1 .3l.4.9c1.7 1.2 3.2 2.1 4.1 2.6l.4.2.4-.2c.9-.5 2.4-1.4 4.1-2.6l.4-.9"/><path class="st0" d="M.3 6.4l-.3.1v16.1C0 29.5 4.3 35.1 8.5 39l-.6-1.4C4.1 33.8.6 28.7.6 22.6V7c3.6-.8 7.3-1.3 11-1.5l.2-.1.6-.6c-4.1.3-8.1.8-12.1 1.6m34.5 0c-4-.8-8.1-1.4-12.2-1.6l.6.6.2.1c3.7.3 7.4.8 11 1.5v15.6c0 6.1-3.4 11.2-7.2 14.9l-.6 1.4C30.8 35 35 29.4 35 22.6V6.5l-.2-.1zM17.6 44.7c-.5-.3-2.4-1.3-4.8-3-.2.1-.5.2-.7.3 2.9 2.1 5.3 3.3 5.3 3.3l.1.1.1-.1c.1 0 2.4-1.2 5.3-3.3-.2-.1-.4-.2-.7-.3-2.2 1.7-4.1 2.7-4.6 3"/></g></switch></svg>