<svg xmlns="http://www.w3.org/2000/svg" width="123" height="44" fill="none"><g clip-path="url(#a)"><path fill="#DCDDDE" d="M117.778 0H67.446s-1.325.08-2.173.08a22.04 22.04 0 0 0-11.205 2.836L54.823.08H0l8.398 6.707 3.708 2.97-7.801 29.388-1.325 4.732h40.266l.742-2.783.543-2.042a32.896 32.896 0 0 0 15.987 4.825 20.441 20.441 0 0 0 14.57-5.302 15.204 15.204 0 0 0 2.41-3.089c2.809 5.303 8.491 8.405 16.028 8.405a22.324 22.324 0 0 0 15.749-6.27 26.413 26.413 0 0 0 6.503-12.143l5.629-20.732L122.732 0h-4.954Z"/><path fill="#592C82" d="M117.778 1.326H65.26a19.236 19.236 0 0 0-13.312 4.732l.411-1.577.834-3.155H3.577l5.603 4.48 4.358 3.473L5.51 39.463l-.834 3.155h37.603l.504-1.869.927-3.632C47.895 39.768 54 42.63 60.492 42.63c5.03.21 9.941-1.56 13.682-4.93a13.55 13.55 0 0 0 3.351-5.303c2 6.39 7.815 10.3 15.895 10.3a21.015 21.015 0 0 0 14.967-5.979 25.075 25.075 0 0 0 6.186-11.533l5.616-20.758.861-3.102h-3.272Z"/><path fill="#FFC629" d="M107.857 3.765h-6.715l5.51 4.4-3.974 14.86a12.103 12.103 0 0 1-2.993 5.807 6.739 6.739 0 0 1-4.808 1.856c-3.55 0-5.523-1.949-5.523-5.104.014-1.118.183-2.229.503-3.3l5.02-18.56h-16.73l5.524 4.415-3.59 13.442a20.207 20.207 0 0 0-.807 5.607c0 7.702 5.126 12.951 14.199 12.951a18.537 18.537 0 0 0 13.153-5.196 22.658 22.658 0 0 0 5.523-10.46l5.629-20.718h-9.921Z"/><path fill="#FFC629" d="M66.439 18.227c-4.9-1.909-5.96-2.412-5.96-3.857 0-1.445 1.47-2.44 3.867-2.44a14.378 14.378 0 0 1 9.431 3.818l6.12-6.628a20.838 20.838 0 0 0-14.57-5.21A16.668 16.668 0 0 0 53.51 8.167a10.605 10.605 0 0 0-3.271 7.662c0 5.17 3.616 7.516 9.272 9.677 4.993 1.895 5.96 2.558 5.96 3.976 0 1.604-1.682 2.652-3.973 2.652a16.1 16.1 0 0 1-11.166-4.892l-3.855 3.91h-3.761l7.218-27.307H33.206l5.643 4.507-2.424 9.067H23.842l3.616-13.574H10.742l5.63 4.507-8.425 31.762h9.934l3.616-13.787h12.584l-3.617 13.787h9.895l1.867-7.079c3.563 2.651 10.703 7.079 18.292 7.079A16.813 16.813 0 0 0 72.44 35.91a10.843 10.843 0 0 0 3.312-7.954c-.04-5.223-3.815-7.675-9.312-9.73Z"/><path fill="#592C82" d="M110.705 40.948h-.344v-1.63h-.61v-.319h1.51v.318h-.609l.053 1.63ZM112.586 40.47l-.596-.914v1.392h-.344v-1.949h.37l.583.915.596-.915h.358v1.949h-.345v-1.392l-.622.915Z"/></g><defs><clipPath id="a"><path fill="#fff" d="M0 0h122.692v43.904H0z"/></clipPath></defs></svg>